# xmcd
#
# Track frame offsets:
#	150
#	14776
#	29416
#	42841
#	58596
#	79555
#	105774
#	130961
#	149653
#	170934
#
# Disc length: 2563 seconds
#
# Revision: 1
# Processed by: cddbd v1.4PL0 Copyright (c) Steve Scherf et al.
# Submitted via: EasyCDDAExtractor 5.0.6
#
DISCID=890a010a
DTITLE=Steve Cohen and Jim Liban - Hot Air
DYEAR=2001
DGENRE=Blues
TTITLE0=Parchman Farm - B. White
TTITLE1=Ain't That Lovin You - Reed
TTITLE2=Rocket 88 - Brenston
TTITLE3=My Babe - Dixon (arr. Peter Roller)
TTITLE4=Big Boss Man - Smith/Dixon
TTITLE5=Louise - Williams/Temple
TTITLE6=Walkin Blues - Johnson
TTITLE7=Roadmap - Cohen
TTITLE8=Done All My Singing - Davis
TTITLE9=Louisiana Blues- Waters
EXTD=Steve and Jim play harmonica duos on Parchman Farm, Done All My Singing, 
EXTD=Walkin Blues and Rocket 88.\nSteve plays guitar where heard except
EXTD=Louise, which has guitar by Jim and         harmonica by Steve.  All oth
EXTD=er harmonica is by Jim.\nSteve sings where heard except Big Boss Man whic
EXTD=h is sung by Jim.\n
EXTT0=
EXTT1=
EXTT2=
EXTT3=
EXTT4=
EXTT5=
EXTT6=
EXTT7=
EXTT8=
EXTT9=
PLAYORDER=
